<svg height="511pt" viewBox="1 -50 511.99998 511" width="511pt" xmlns="http://www.w3.org/2000/svg"><path d="m505.667969 165.617188s6.488281-62-53.011719-62l-8.179688 31 35.421876 33.777343zm0 0" fill="#d2d2d2"/><path d="m512 186.515625c0 20.796875-16.859375 37.65625-37.65625 37.65625s-37.652344-16.859375-37.652344-37.65625 16.855469-37.65625 37.652344-37.65625 37.65625 16.859375 37.65625 37.65625zm0 0" fill="#d9a891"/><path d="m234.917969 411.097656-50.242188-103.699218c61.410157-24.839844 111.765625 0 111.765625 0h108.625c12.179688 10.378906 50.242188 47.320312 50.242188 103.699218zm0 0" fill="#b6a4ff"/><path d="m383.015625 319.453125c0 17.820313-14.445313 32.261719-32.261719 32.261719s-32.261718-14.441406-32.261718-32.261719c0-17.816406 14.445312-32.261719 32.261718-32.261719s32.261719 14.445313 32.261719 32.261719zm0 0" fill="#d9a891"/><path d="m411.378906 296.816406s-23.070312 26.714844 0 43.03125c11.03125 7.804688 20.976563 4.621094 28.355469-.828125 11.816406-8.726562 16.417969-24.492187 10.050781-37.730469-3.15625-6.5625-9.019531-12.664062-19.707031-15.398437zm0 0" fill="#fbc4ac"/><path d="m350.753906 53.578125c-72 0-130.363281 59.511719-130.363281 132.9375s58.363281 132.9375 130.363281 132.9375c71.992188 0 130.355469-59.511719 130.355469-132.9375s-58.363281-132.9375-130.355469-132.9375zm0 0" fill="#e3b098"/><path d="m173.757812 43.894531c0 23.96875-19.425781 43.398438-43.394531 43.398438s-43.394531-19.429688-43.394531-43.398438c0-23.964843 19.425781-43.394531 43.394531-43.394531s43.394531 19.429688 43.394531 43.394531zm0 0" fill="#d2d2d2"/><path d="m234.917969 411.097656c0-56.378906-38.0625-93.320312-50.242188-103.699218h-108.625c-12.179687 10.378906-50.238281 47.320312-50.238281 103.699218zm0 0" fill="#ff98c9"/><path d="m162.625 319.453125c0 17.820313-14.445312 32.261719-32.261719 32.261719-17.816406 0-32.261719-14.441406-32.261719-32.261719 0-17.816406 14.445313-32.261719 32.261719-32.261719 17.816407 0 32.261719 14.445313 32.261719 32.261719zm0 0" fill="#e3b098"/><path d="m69.738281 296.816406s23.074219 26.714844 0 43.03125c-11.03125 7.804688-20.976562 4.621094-28.355469-.828125-11.816406-8.726562-16.417968-24.492187-10.046874-37.730469 3.152343-6.5625 9.015624-12.664062 19.703124-15.398437zm0 0" fill="#e3b098"/><path d="m130.363281 74.179688c-72 0-130.363281 38.910156-130.363281 112.335937s58.363281 132.9375 130.363281 132.9375c71.992188 0 130.355469-59.511719 130.355469-132.9375s-58.363281-112.335937-130.355469-112.335937zm0 0" fill="#fbc4ac"/><path d="m260.71875 186.515625c-43.230469-106.484375-130.355469-61.304687-130.355469-61.304687s-87.121093-45.179688-130.363281 61.304687c0-73.425781 58.363281-132.9375 130.363281-132.9375 71.992188 0 130.355469 59.511719 130.355469 132.9375zm0 0" fill="#b8b8b8"/><path d="m420.238281 214.070312c-4.269531 0-7.726562-3.457031-7.726562-7.726562v-13.511719c0-4.265625 3.457031-7.726562 7.726562-7.726562s7.726563 3.460937 7.726563 7.726562v13.511719c0 4.269531-3.460938 7.726562-7.726563 7.726562zm0 0" fill="#3a484a"/><path d="m429.4375 233.929688h-18.402344c-4.265625 0-7.722656-3.457032-7.722656-7.726563 0-4.265625 3.457031-7.726563 7.722656-7.726563h18.402344c4.269531 0 7.726562 3.460938 7.726562 7.726563 0 4.269531-3.457031 7.726563-7.726562 7.726563zm0 0" fill="#f98084"/><path d="m281.257812 214.070312c-4.265624 0-7.726562-3.457031-7.726562-7.726562v-13.511719c0-4.265625 3.460938-7.726562 7.726562-7.726562 4.269532 0 7.726563 3.460937 7.726563 7.726562v13.511719c0 4.269531-3.457031 7.726562-7.726563 7.726562zm0 0" fill="#3a484a"/><path d="m290.460938 233.929688h-18.402344c-4.269532 0-7.726563-3.457032-7.726563-7.726563 0-4.265625 3.457031-7.726563 7.726563-7.726563h18.402344c4.269531 0 7.726562 3.460938 7.726562 7.726563 0 4.269531-3.457031 7.726563-7.726562 7.726563zm0 0" fill="#f98084"/><path d="m199.847656 214.070312c-4.265625 0-7.726562-3.457031-7.726562-7.726562v-13.511719c0-4.265625 3.460937-7.726562 7.726562-7.726562 4.269532 0 7.726563 3.460937 7.726563 7.726562v13.511719c0 4.269531-3.457031 7.726562-7.726563 7.726562zm0 0" fill="#3a484a"/><path d="m209.050781 233.929688h-18.402343c-4.269532 0-7.726563-3.457032-7.726563-7.726563 0-4.265625 3.457031-7.726563 7.726563-7.726563h18.402343c4.269531 0 7.726563 3.460938 7.726563 7.726563 0 4.269531-3.460938 7.726563-7.726563 7.726563zm0 0" fill="#f98084"/><path d="m60.871094 214.070312c-4.269532 0-7.726563-3.457031-7.726563-7.726562v-13.511719c0-4.265625 3.457031-7.726562 7.726563-7.726562 4.265625 0 7.722656 3.460937 7.722656 7.726562v13.511719c0 4.269531-3.457031 7.726562-7.722656 7.726562zm0 0" fill="#3a484a"/><path d="m70.070312 233.929688h-18.402343c-4.269531 0-7.726563-3.457032-7.726563-7.726563 0-4.265625 3.457032-7.726563 7.726563-7.726563h18.402343c4.265626 0 7.726563 3.460938 7.726563 7.726563 0 4.269531-3.460937 7.726563-7.726563 7.726563zm0 0" fill="#f98084"/><path d="m130.359375 233.167969c-7.074219 0-13.726563-2.96875-18.246094-8.140625-2.808593-3.214844-2.480469-8.09375.734375-10.902344 3.210938-2.808594 8.09375-2.480469 10.902344.734375 1.585938 1.8125 3.996094 2.855469 6.609375 2.855469s5.023437-1.042969 6.613281-2.859375c2.804688-3.210938 7.6875-3.539063 10.902344-.730469 3.210938 2.808594 3.539062 7.691406.730469 10.902344-4.523438 5.171875-11.171875 8.140625-18.246094 8.140625zm0 0" fill="#3a484a"/><path d="m62.824219 411.097656v-35.332031c0-4.269531 3.457031-7.726563 7.726562-7.726563 4.265625 0 7.722657 3.457032 7.722657 7.726563v35.332031zm0 0" fill="#eb6da8"/><path d="m182.453125 411.097656v-35.332031c0-4.269531 3.457031-7.726563 7.722656-7.726563 4.269531 0 7.726563 3.457032 7.726563 7.726563v35.332031zm0 0" fill="#eb6da8"/><path d="m402.835938 411.097656v-35.332031c0-4.269531 3.460937-7.726563 7.726562-7.726563 4.269531 0 7.726562 3.457032 7.726562 7.726563v35.332031zm0 0" fill="#937fe6"/><path d="m350.75 251.40625c13.082031 16.351562 32.359375 9.574219 42.527344 4.203125 2.464844-1.300781 2.640625-4.726563.355468-6.324219-5.828124-4.078125-9.21875-13.007812-14.035156-17.496094-7.476562-6.96875-20.363281-11.203124-28.847656-3.511718-8.488281-7.691406-21.371094-3.457032-28.851562 3.511718-4.8125 4.488282-8.207032 13.417969-14.035157 17.496094-2.285156 1.597656-2.109375 5.023438.355469 6.324219 10.167969 5.371094 29.445312 12.148437 42.53125-4.203125zm0 0" fill="#d2d2d2"/><g fill="#d9a891"><path d="m397.859375 151.214844h-94.210937c-4.265626 0-7.726563-3.460938-7.726563-7.726563s3.460937-7.726562 7.726563-7.726562h94.210937c4.265625 0 7.726563 3.460937 7.726563 7.726562s-3.460938 7.726563-7.726563 7.726563zm0 0"/><path d="m383.015625 125.078125h-64.523437c-4.265626 0-7.726563-3.457031-7.726563-7.726563 0-4.265624 3.460937-7.726562 7.726563-7.726562h64.523437c4.265625 0 7.726563 3.460938 7.726563 7.726562 0 4.269532-3.460938 7.726563-7.726563 7.726563zm0 0"/></g></svg>